<?xml version="1.0" encoding="utf-8"?>
<!-- Generator: Adobe Illustrator 26.0.2, SVG Export Plug-In . SVG Version: 6.00 Build 0)  -->
<svg version="1.1" id="Layer_1" xmlns="http://www.w3.org/2000/svg" xmlns:xlink="http://www.w3.org/1999/xlink" x="0px" y="0px"
	 viewBox="0 0 250 85" style="enable-background:new 0 0 250 85;" xml:space="preserve">
<style type="text/css">
	.st0{fill:#6F6F6E;}
	.st1{fill:#ED7203;}
	.st2{fill-rule:evenodd;clip-rule:evenodd;fill:#6F6F6E;}
	.st3{fill-rule:evenodd;clip-rule:evenodd;fill:#ED7203;}
</style>
<g>
	<g>
		<path class="st0" d="M127.8,33.5c0,4-0.9,7.6-2.7,10.7c-1.8,3.2-4.1,5.6-6.9,7.3c-2.1,1.3-4.4,2.1-6.8,2.6
			c-2.5,0.5-5.5,0.7-8.8,0.7H87.4V12h15.5c3.5,0,6.5,0.3,9.1,0.8c2.5,0.6,4.6,1.4,6.4,2.5c2.9,1.8,5.3,4.2,6.9,7.3
			C127,25.7,127.8,29.3,127.8,33.5 M116.4,33.4c0-2.8-0.5-5.3-1.6-7.3s-2.6-3.6-4.8-4.7c-1.2-0.5-2.3-0.9-3.5-1.2
			c-1.2-0.2-2.9-0.3-5.3-0.3h-2.7v26.8h2.7c2.6,0,4.5-0.1,5.8-0.3c1.3-0.2,2.4-0.6,3.6-1.3c2-1.2,3.5-2.7,4.4-4.6
			C115.9,38.6,116.4,36.3,116.4,33.4"/>
		<path class="st0" d="M168.7,38.8c0,5.4-1.6,9.5-4.6,12.5c-3.1,3.1-7.5,4.6-13.1,4.6s-9.9-1.6-13.1-4.6c-3.1-3.1-4.6-7.3-4.6-12.5
			c0-5.4,1.6-9.6,4.6-12.6c3.2-3.1,7.5-4.5,13.1-4.5c5.7,0,10,1.6,13.1,4.6C167.2,29.2,168.7,33.4,168.7,38.8 M156,46.6
			c0.6-0.8,1.2-1.8,1.5-2.9c0.3-1.2,0.5-2.7,0.5-4.8c0-1.9-0.2-3.5-0.5-4.7c-0.3-1.3-0.8-2.3-1.5-3.1c-0.6-0.7-1.4-1.4-2.2-1.7
			s-1.8-0.5-2.7-0.5s-1.9,0.1-2.6,0.4c-0.7,0.3-1.5,0.8-2.2,1.6c-0.6,0.7-1.2,1.8-1.5,3.1c-0.4,1.3-0.5,2.9-0.5,4.9
			c0,1.8,0.2,3.3,0.5,4.6s0.8,2.3,1.5,3.2c0.6,0.7,1.4,1.3,2.2,1.7c0.8,0.3,1.8,0.5,2.9,0.5c0.9,0,1.8-0.1,2.6-0.5
			C154.7,47.8,155.4,47.3,156,46.6"/>
		<polygon class="st0" points="208.7,22.6 196.2,54.9 184.5,54.9 172.1,22.6 183,22.6 190.6,44.9 198,22.6 		"/>
		<polygon class="st0" points="228.9,43.4 236.3,22.6 247,22.6 224.6,77.8 213.3,77.8 222.9,54.6 210.4,22.6 221.2,22.6 		"/>
		<polygon class="st1" points="103.6,77.8 98,77.8 92.9,70.9 91.8,72.2 91.8,77.8 87.4,77.8 87.4,60.5 91.8,60.5 91.8,68.4 98,60.5 
			103.2,60.5 96.5,68.5 		"/>
		<polygon class="st1" points="118.4,77.8 105.8,77.8 105.8,60.5 118.4,60.5 118.4,63.8 110.3,63.8 110.3,66.8 117.7,66.8 
			117.7,70.2 110.3,70.2 110.3,74.5 118.4,74.5 		"/>
		<path class="st1" d="M137.3,71.5c0,2.1-0.6,3.8-2,4.9c-1.3,1.2-3.3,1.7-5.8,1.7s-4.4-0.5-5.8-1.7c-1.3-1.2-2-2.7-2-4.9v-11h4.5
			v10.8c0,1.2,0.2,2.1,0.7,2.7s1.4,0.8,2.4,0.8c1.2,0,1.9-0.3,2.4-0.8s0.7-1.5,0.7-2.7V60.5h4.5v11.1L137.3,71.5L137.3,71.5z"/>
		<polygon class="st1" points="157.7,77.8 152.3,77.8 147,70.9 146,72.2 146,77.8 141.5,77.8 141.5,60.5 146,60.5 146,68.4 
			152.2,60.5 157.4,60.5 150.6,68.5 		"/>
		<polygon class="st1" points="172.5,77.8 160,77.8 160,60.5 172.5,60.5 172.5,63.8 164.4,63.8 164.4,66.8 172,66.8 172,70.2 
			164.4,70.2 164.4,74.5 172.5,74.5 		"/>
		<polygon class="st1" points="192.1,77.8 187.7,77.8 180.4,66 180.4,77.8 176.3,77.8 176.3,60.5 181.6,60.5 188,70.4 188,60.5 
			192.1,60.5 		"/>
		<path class="st1" d="M210.4,72.4c0,1.7-0.7,3.1-2.2,4.2s-3.4,1.6-5.9,1.6c-1.5,0-2.7-0.1-3.8-0.4c-1.1-0.2-2.1-0.5-3.1-0.9v-4.2
			h0.5c0.9,0.7,2,1.3,3.2,1.7c1.2,0.4,2.2,0.6,3.3,0.6c0.3,0,0.6,0,1.1-0.1c0.4,0,0.8-0.1,1.1-0.2s0.6-0.3,0.8-0.5s0.3-0.5,0.3-0.9
			s-0.2-0.7-0.5-0.9c-0.3-0.3-0.8-0.5-1.4-0.6c-0.6-0.1-1.4-0.3-2.1-0.4c-0.7-0.1-1.4-0.3-2-0.5c-1.5-0.5-2.5-1.2-3.2-1.9
			c-0.6-0.8-0.9-1.8-0.9-3.1c0-1.6,0.7-2.9,2.2-4s3.3-1.6,5.6-1.6c1.2,0,2.3,0.1,3.4,0.3c1.2,0.2,2.1,0.5,2.9,0.8v4h-0.4
			c-0.7-0.5-1.6-1.1-2.5-1.4c-1.1-0.4-2-0.5-3.2-0.5c-0.4,0-0.7,0-1.2,0.1c-0.3,0-0.7,0.1-1.1,0.3c-0.3,0.1-0.5,0.3-0.7,0.5
			s-0.3,0.5-0.3,0.8c0,0.4,0.2,0.8,0.5,1.1s1.1,0.4,2,0.6c0.6,0.1,1.3,0.2,1.8,0.4c0.6,0.1,1.3,0.3,1.9,0.5c1.4,0.4,2.3,1.1,2.9,1.8
			C210.1,70.2,210.4,71.2,210.4,72.4"/>
		<path class="st0" d="M234.6,71.4c1.7,0,3.1,1.4,3.1,3.1s-1.4,3.1-3.1,3.1s-3.1-1.4-3.1-3.1S232.9,71.4,234.6,71.4 M231.9,74.4
			c0,1.5,1.2,2.7,2.6,2.7c1.5,0,2.6-1.2,2.6-2.7s-1.2-2.6-2.6-2.6C233,71.7,231.9,73,231.9,74.4 M234.6,72.8c0.6,0,0.8,0.1,0.9,0.3
			c0.2,0.1,0.3,0.4,0.3,0.6c0,0.3-0.2,0.6-0.5,0.7c0.5,0.2,0.5,0.7,0.5,0.9c0,0.4,0,0.5,0.1,0.6h-0.4c0-0.1-0.1-0.7-0.1-0.9
			c-0.1-0.4-0.6-0.4-0.9-0.4h-0.6V76h-0.4v-3.3h1.1L234.6,72.8L234.6,72.8z M233.8,74.4h0.7c0.3,0,0.9,0,0.9-0.6s-0.5-0.6-1.1-0.6
			h-0.7v1.3h0.2L233.8,74.4L233.8,74.4z"/>
		<polygon class="st2" points="39.2,12.8 11.6,12.8 11.6,32.8 32.7,32.8 		"/>
		<polygon class="st2" points="72.6,32.8 72.6,12.8 44.5,12.8 51,32.8 		"/>
		<polygon class="st3" points="41.8,4.6 39.2,12.8 44.5,12.8 		"/>
		<polygon class="st3" points="3,32.8 11.6,39.1 11.6,32.8 		"/>
		<polygon class="st3" points="80.7,32.8 72.6,32.8 72.6,38.7 		"/>
		<polygon class="st2" points="72.6,78.4 72.6,38.7 56.7,50.3 65.8,78.4 		"/>
		<polygon class="st2" points="17.8,78.4 27,50.3 11.6,39.1 11.6,78.4 		"/>
		<polygon class="st2" points="65.7,78.4 41.8,61 17.9,78.4 		"/>
		<polygon class="st1" points="42.1,18.2 48.2,37.1 68.3,37.1 52.1,48.9 58.3,68 42.1,56.2 25.9,68 32.1,48.9 15.9,37.1 35.9,37.1 
					"/>
	</g>
</g>
</svg>
