<svg xmlns="http://www.w3.org/2000/svg" width="88" height="88" viewBox="0 0 88 88" fill="none"><rect width="88" height="88" fill="#6E6809"></rect><path d="M25.4573 53.5383C23.0699 52.5872 22.3879 50.832 22.4517 48.7271C22.5221 46.4029 23.5622 44.7485 26.1532 44.2776C23.3003 41.0466 22.0076 37.5548 23.0282 33.4587C23.3363 32.0128 23.955 30.651 24.8414 29.4677C25.7278 28.2845 26.8608 27.3079 28.162 26.6057C29.4631 25.9034 30.9014 25.4923 32.3771 25.4007C33.8529 25.3092 35.3309 25.5393 36.709 26.0753C37.1007 26.2738 37.5442 26.3463 37.9788 26.2829C38.4133 26.2195 38.8176 26.0232 39.1362 25.7209C39.8526 25.1706 40.7018 24.8195 41.5977 24.7032C41.9359 24.6263 42.2868 24.6244 42.6257 24.6975C42.9647 24.7706 43.2836 24.917 43.5601 25.1264C43.8365 25.3357 44.0637 25.6031 44.2259 25.9095C44.3881 26.216 44.4812 26.5543 44.4987 26.9006C44.5435 27.1809 44.5225 27.4678 44.4375 27.7387C44.3525 28.0095 44.2058 28.2569 44.0089 28.4614C43.812 28.6659 43.5703 28.8219 43.3028 28.9171C43.0353 29.0124 42.7494 29.0442 42.4676 29.0102C40.7269 28.9602 40.4373 27.676 40.6603 25.9726L38.9724 27.0301C39.3037 27.415 39.5276 27.7019 39.7812 27.9656C41.3351 29.4913 42.398 31.4461 42.8339 33.5796C43.2698 35.7131 43.0588 37.9281 42.2279 39.941C40.205 45.6062 34.1568 48.0757 28.5814 45.8181C27.5052 45.4303 26.3362 45.3799 25.2306 45.6738C24.8486 45.8425 24.5156 46.1055 24.2629 46.438C24.0103 46.7706 23.8462 47.1619 23.7861 47.5751C23.813 48.1691 24.7911 48.8797 25.5027 49.2313C26.1907 49.4447 26.9165 49.5078 27.631 49.4164C30.7773 49.4117 33.9162 49.3562 37.0587 49.3673C39.8497 49.3775 41.408 50.5924 42.1964 53.2867C42.7773 55.1475 42.7348 57.147 42.0754 58.9815C41.416 60.816 40.1758 62.3851 38.543 63.4504C34.6611 66.179 30.4146 66.4445 26.007 65.0095C24.8846 64.7243 23.871 64.1152 23.0925 63.258C22.314 62.4008 21.805 61.3334 21.6291 60.189C21.2293 57.6575 22.4675 55.7839 24.3959 54.2896C24.6523 54.0907 24.9262 53.913 25.4583 53.5374M38.1636 36.7322C38.011 34.7143 37.9462 32.6843 37.6843 30.6793C37.3216 27.9036 35.8632 26.6221 33.15 26.462C30.5589 26.3094 28.5879 27.5381 28.0882 30.1075C27.7328 32.2948 27.5816 34.5104 27.6366 36.7257C27.6013 38.4879 27.7502 40.249 28.0808 41.9802C28.636 44.6329 30.5423 45.7145 33.7839 45.5128C36.3018 45.3564 37.6787 44.1073 37.9564 41.4482C38.1183 39.8947 38.1053 36.7294 38.1646 36.7294M33.2601 53.3135C33.2601 53.3894 30.3757 53.518 28.9395 53.5485C28.1149 53.5456 27.3083 53.79 26.624 54.2502C25.9398 54.7104 25.4093 55.3651 25.1011 56.1299C23.2994 59.9354 25.2093 63.728 29.3633 64.3748C30.8342 64.632 32.3399 64.6163 33.8051 64.3285C37.4409 63.5087 40.2827 61.5121 41.4987 57.8176C42.239 55.5665 41.5551 54.3794 39.2778 53.938C37.3058 53.5559 35.27 53.5096 33.2629 53.3153" fill="white"></path><path d="M46.5318 53.5337C44.1444 52.5826 43.4624 50.8274 43.5262 48.7224C43.5965 46.3982 44.6367 44.7439 47.2277 44.273C44.3748 41.042 43.082 37.5501 44.1027 33.4541C44.4108 32.0081 45.0294 30.6464 45.9159 29.4631C46.8023 28.2798 47.9353 27.3033 49.2364 26.6011C50.5376 25.8988 51.9758 25.4877 53.4516 25.3961C54.9274 25.3045 56.4054 25.5347 57.7834 26.0707C59.3332 26.2959 60.9135 25.9858 62.2632 25.1917C62.9796 24.6414 63.8288 24.2903 64.7247 24.1739C65.0628 24.0971 65.4137 24.0951 65.7527 24.1683C66.0917 24.2414 66.4106 24.3877 66.687 24.5971C66.9634 24.8065 67.1907 25.0738 67.3528 25.3803C67.515 25.6868 67.6081 26.0251 67.6257 26.3714C67.6704 26.6517 67.6495 26.9386 67.5645 27.2094C67.4795 27.4803 67.3327 27.7277 67.1358 27.9322C66.9389 28.1367 66.6972 28.2927 66.4297 28.3879C66.1623 28.4831 65.8764 28.515 65.5945 28.4809C63.8539 28.431 63.5642 27.1467 63.7873 25.4433C63.1543 25.8412 60.6465 26.6526 60.0497 27.0283C60.381 27.4132 60.6049 27.7 60.8584 27.9637C62.4123 29.4895 63.4753 31.4443 63.9112 33.5778C64.3471 35.7113 64.136 37.9263 63.3051 39.9391C61.2823 45.6044 55.234 48.0738 49.6587 45.8163C48.5824 45.4284 47.4135 45.3781 46.3079 45.6719C45.9258 45.8407 45.5929 46.1036 45.3402 46.4362C45.0876 46.7688 44.9235 47.16 44.8634 47.5733C44.8902 48.1673 45.8683 48.8779 46.5799 49.2295C47.268 49.4428 47.9938 49.5059 48.7083 49.4145C51.8546 49.4099 54.9934 49.3544 58.136 49.3655C60.9269 49.3757 62.4853 50.5905 63.2737 53.2848C63.8546 55.1456 63.8121 57.1452 63.1527 58.9796C62.4933 60.8141 61.253 62.3832 59.6203 63.4486C55.7384 66.1771 51.4918 66.4427 47.0843 65.0076C45.9619 64.7225 44.9483 64.1133 44.1698 63.2561C43.3912 62.3989 42.8823 61.3316 42.7063 60.1871C42.3066 57.6557 43.5447 55.782 45.4732 54.2878C45.7295 54.0888 46.0034 53.9112 46.5355 53.5356M59.2418 36.7304C59.0891 34.7124 59.0244 32.6824 58.7625 30.6774C58.3997 27.9017 56.9413 26.6203 54.2281 26.4602C51.6371 26.3075 49.6661 27.5362 49.1664 30.1056C48.8122 32.2934 48.6623 34.5093 48.7185 36.7248C48.6832 38.487 48.8321 40.248 49.1627 41.9793C49.7179 44.6319 51.6241 45.7136 54.8657 45.5119C57.3837 45.3555 58.7606 44.1064 59.0382 41.4473C59.2002 39.8938 59.1872 36.7285 59.2464 36.7285M54.342 53.3126C54.342 53.3884 51.4576 53.517 50.0214 53.5476C49.1976 53.545 48.3918 53.7893 47.7081 54.2489C47.0245 54.7085 46.4942 55.3624 46.1857 56.1262C44.384 59.9318 46.2949 63.7243 50.448 64.3711C51.9189 64.6283 53.4246 64.6126 54.8898 64.3248C58.5256 63.505 61.3674 61.5084 62.5833 57.8139C63.3236 55.5628 62.6398 54.3757 60.3624 53.9343C58.3905 53.5522 56.3547 53.5059 54.3475 53.3116" fill="white"></path><path d="M84.7164 36.0568C84.6785 42.0949 80.2589 46.6453 74.4226 46.6564C68.9027 46.6666 64.3804 41.8174 64.4285 35.9347C64.4156 34.5403 64.6833 33.1575 65.2159 31.8688C65.7484 30.58 66.5349 29.4115 67.5284 28.4329C68.5219 27.4543 69.7022 26.6855 70.999 26.1724C72.2958 25.6593 73.6826 25.4123 75.0768 25.4461C80.7725 25.4905 84.7599 29.878 84.721 36.0568M79.7471 36.723L79.873 36.7156C79.831 34.6285 79.6825 32.5449 79.4279 30.473C78.9448 27.6158 77.331 26.4287 74.5179 26.4583C71.9685 26.4852 69.9835 27.861 69.7818 30.5016C69.4848 34.2674 69.5068 38.0516 69.8475 41.8137C70.1168 44.6412 72.4043 45.8042 75.7801 45.5063C78.3665 45.2778 79.6537 43.7853 79.7416 40.8468C79.7832 39.4737 79.749 38.0979 79.749 36.7239" fill="white"></path><path d="M22.2991 39C22.6303 42.5649 18.8391 46.1133 14.9442 46.4852C9.44655 47.0089 5.30551 44.4534 3.78789 39.6005C3.03495 37.1764 3.12278 34.5692 4.03715 32.2013C4.95151 29.8335 6.63883 27.8437 8.82562 26.5546C10.0602 25.7959 11.4648 25.3576 12.9118 25.2795C14.3588 25.2015 15.8024 25.4861 17.1114 26.1076C18.4205 26.729 19.5535 27.6677 20.4076 28.8382C21.2617 30.0087 21.8097 31.374 22.002 32.8101C22.2861 34.4191 22.2408 35.0918 21.7975 35.0918C18.009 35.0918 12.5132 35.0714 8.19452 35.0714C8.04554 38.2616 7.87897 40.3027 8.37959 42.7435C8.76918 44.6338 11.1465 45.3342 12.9713 45.4841C14.7451 45.6206 16.5177 45.206 18.0469 44.297C19.5761 43.3879 20.7871 42.0288 21.5143 40.4054C21.7411 39.9206 22.0316 39.4654 22.2917 38.9954M12.4781 34.3118C17.0966 34.3118 16.5062 34.087 16.5062 29.742C16.5062 27.6732 13.9281 26.4241 12.0265 26.8386C9.64828 27.3567 8.47953 29.9594 8.47953 32.8527C8.47953 34.5912 12.2828 34.3146 12.4781 34.3146" fill="white"></path><path d="M22.0103 70.1288H22.3222V71.6009H22.3537L23.9721 70.1288H24.4015L22.7127 71.6573L24.4959 73.469H24.048L22.3537 71.7415H22.325V73.468H22.0131L22.0103 70.1288Z" fill="white"></path><path d="M26.6206 70.1279H26.3087V73.468H26.6206V70.1279Z" fill="white"></path><path d="M29.6919 70.4064H28.55V70.1288H31.141V70.412H30.0028V73.4653H29.691L29.6919 70.4064Z" fill="white"></path><path d="M35.8252 72.9444C35.6833 73.144 35.492 73.3034 35.27 73.407C35.0547 73.5023 34.8216 73.5505 34.5862 73.5485C34.3465 73.5511 34.1086 73.5071 33.8857 73.419C33.6805 73.3374 33.4947 73.2135 33.3406 73.0554C33.187 72.8957 33.0668 72.707 32.9871 72.5002C32.8172 72.0462 32.8172 71.5461 32.9871 71.092C33.067 70.8854 33.1872 70.6967 33.3406 70.5369C33.4947 70.3772 33.6803 70.2511 33.8857 70.1668C34.1081 70.0767 34.3462 70.0317 34.5862 70.0345C34.8036 70.0328 35.0192 70.0736 35.221 70.1548C35.4256 70.2413 35.6038 70.3805 35.7373 70.5582L35.4828 70.77C35.3861 70.6191 35.2475 70.4995 35.084 70.4258C34.9276 70.3548 34.7579 70.3179 34.5862 70.3176C34.3846 70.3144 34.1846 70.3529 33.9985 70.4305C33.8297 70.502 33.6777 70.6083 33.5525 70.7423C33.4284 70.8762 33.3322 71.0335 33.2694 71.2049C33.1373 71.5804 33.1373 71.9897 33.2694 72.3652C33.3322 72.5366 33.4284 72.6939 33.5525 72.8278C33.6777 72.9618 33.8297 73.068 33.9985 73.1396C34.1846 73.2172 34.3846 73.2556 34.5862 73.2525C34.7704 73.2513 34.9519 73.2086 35.1173 73.1276C35.2059 73.0839 35.2891 73.0302 35.3653 72.9675C35.4459 72.9008 35.5158 72.8222 35.5726 72.7343L35.8252 72.9444Z" fill="white"></path><path d="M37.8111 70.1288H38.1229V71.6009H39.9913V70.1288H40.3031V73.469H39.9913V71.8868H38.1229V73.4717H37.8111V70.1288Z" fill="white"></path><path d="M42.6332 70.1288H44.6764V70.412H42.9451V71.6009H44.5682V71.884H42.9451V73.1821H44.7514V73.4653H42.6332V70.1288Z" fill="white"></path><path d="M46.8511 70.1288H47.2517L49.2876 73.0535H49.2968V70.1288H49.6087V73.469H49.208L47.1722 70.5443H47.1629V73.469H46.8511V70.1288Z" fill="white"></path><path d="M56.4148 72.4965L56.8969 71.6287H57.2171L56.6128 72.6945L57.3725 73.4921H56.9524L56.4527 72.9545C56.33 73.1242 56.1792 73.2716 56.0067 73.3903C55.8305 73.5029 55.6244 73.5596 55.4154 73.5532C55.2794 73.5542 55.1444 73.531 55.0165 73.4847C54.8968 73.4417 54.7869 73.375 54.6936 73.2885C54.6009 73.2024 54.5269 73.0982 54.4761 72.9823C54.421 72.856 54.3935 72.7194 54.3956 72.5817C54.3929 72.4651 54.4153 72.3492 54.4613 72.2421C54.5038 72.1467 54.562 72.0592 54.6334 71.983C54.7064 71.9058 54.7877 71.8369 54.8759 71.7776C54.9678 71.7159 55.0622 71.6543 55.159 71.5926C55.1118 71.5352 55.0665 71.4769 55.0147 71.4149C54.9666 71.3549 54.9233 71.2911 54.8851 71.2243C54.8484 71.159 54.8174 71.0906 54.7926 71.0198C54.7674 70.9492 54.7546 70.8747 54.7547 70.7996C54.7525 70.6888 54.776 70.5789 54.8231 70.4786C54.867 70.3869 54.9301 70.3058 55.0082 70.2408C55.0879 70.1748 55.1793 70.1243 55.2775 70.0918C55.38 70.0572 55.4876 70.0397 55.5958 70.04C55.7888 70.0408 55.9752 70.1103 56.1214 70.2362C56.1947 70.2995 56.2533 70.3781 56.2928 70.4665C56.3323 70.555 56.3518 70.651 56.35 70.7478C56.3528 70.8553 56.331 70.9619 56.2861 71.0596C56.244 71.1476 56.1866 71.2274 56.1168 71.2956C56.0447 71.3663 55.9646 71.4284 55.8781 71.4806C55.7902 71.5343 55.6985 71.5861 55.6004 71.6361L56.4148 72.4965ZM55.3395 71.7933C55.2636 71.8378 55.1887 71.8859 55.1156 71.9349C55.0428 71.9841 54.9749 72.0401 54.9129 72.1024C54.8522 72.1628 54.8018 72.2328 54.7639 72.3096C54.7254 72.3915 54.7061 72.481 54.7075 72.5715C54.7056 72.6668 54.7241 72.7613 54.762 72.8488C54.7998 72.9363 54.856 73.0146 54.9268 73.0785C54.9967 73.1413 55.0785 73.1894 55.1674 73.2201C55.2622 73.2536 55.362 73.2705 55.4626 73.27C55.5471 73.2706 55.6311 73.2562 55.7106 73.2275C55.787 73.1999 55.8592 73.1619 55.9253 73.1146C55.9925 73.0669 56.0545 73.0123 56.1103 72.9517C56.1668 72.8905 56.2187 72.8253 56.2658 72.7565L55.3395 71.7933ZM55.5708 70.3259C55.4394 70.3224 55.3115 70.3686 55.2127 70.4555C55.1646 70.4982 55.1265 70.551 55.1012 70.6102C55.0759 70.6694 55.0641 70.7335 55.0665 70.7978C55.0671 70.8578 55.0791 70.9171 55.1017 70.9727C55.1266 71.0336 55.1576 71.0919 55.1942 71.1466C55.2298 71.2025 55.2691 71.256 55.3117 71.3067L55.4274 71.4436C55.4934 71.4091 55.5625 71.3714 55.6347 71.3307C55.7059 71.2908 55.7726 71.2433 55.8336 71.1892C55.8929 71.1358 55.9431 71.0733 55.9826 71.0041C56.0226 70.933 56.0427 70.8525 56.0409 70.771C56.0431 70.7108 56.0326 70.6508 56.0099 70.595C55.9873 70.5392 55.9531 70.4888 55.9095 70.4471C55.8188 70.3628 55.6983 70.3179 55.5745 70.3222" fill="white"></path><path d="M61.9541 70.1288H62.2659V71.6009H64.1343V70.1288H64.4461V73.469H64.1343V71.8868H62.2659V73.4717H61.9541V70.1288Z" fill="white"></path><path d="M66.5587 71.798C66.5558 71.5577 66.5989 71.319 66.6855 71.0948C66.7659 70.8882 66.8863 70.6995 67.0399 70.5397C67.1937 70.3799 67.379 70.2539 67.584 70.1696C68.0347 69.9933 68.5353 69.9933 68.986 70.1696C69.1913 70.2539 69.3769 70.3799 69.531 70.5397C69.6843 70.6996 69.8045 70.8883 69.8845 71.0948C70.0544 71.5488 70.0544 72.049 69.8845 72.503C69.8046 72.7096 69.6844 72.8983 69.531 73.0582C69.3769 73.2163 69.1912 73.3402 68.986 73.4218C68.5347 73.5949 68.0353 73.5949 67.584 73.4218C67.3792 73.3401 67.1938 73.2162 67.0399 73.0582C66.8862 72.8984 66.7657 72.7097 66.6855 72.503C66.5991 72.2781 66.556 72.0389 66.5587 71.798ZM66.8706 71.798C66.8689 71.9957 66.9024 72.1921 66.9696 72.3781C67.0324 72.5496 67.1286 72.7068 67.2528 72.8407C67.3777 72.9746 67.5293 73.0808 67.6979 73.1525C68.0751 73.3035 68.4959 73.3035 68.8731 73.1525C69.042 73.081 69.1939 72.9748 69.3191 72.8407C69.4429 72.7067 69.5389 72.5495 69.6014 72.3781C69.7334 72.0026 69.7334 71.5933 69.6014 71.2179C69.5389 71.0465 69.4429 70.8892 69.3191 70.7552C69.1939 70.6212 69.042 70.515 68.8731 70.4434C68.4959 70.2925 68.0751 70.2925 67.6979 70.4434C67.5293 70.5152 67.3777 70.6214 67.2528 70.7552C67.1287 70.8892 67.0324 71.0464 66.9696 71.2179C66.9024 71.4038 66.8689 71.6003 66.8706 71.798Z" fill="white"></path><path d="M74.5003 72.1894C74.5008 72.3627 74.48 72.5355 74.4383 72.7038C74.4005 72.8609 74.3309 73.0086 74.2338 73.1377C74.1334 73.2669 74.0036 73.3703 73.8553 73.4394C73.4883 73.5903 73.0766 73.5903 72.7097 73.4394C72.5617 73.3701 72.4323 73.2667 72.3321 73.1377C72.2346 73.0088 72.1649 72.8611 72.1276 72.7038C72.0858 72.5355 72.0653 72.3627 72.0665 72.1894V70.1288H72.3775V72.1098C72.3783 72.2379 72.3894 72.3656 72.4108 72.4919C72.4316 72.6244 72.4754 72.7521 72.5403 72.8694C72.6068 72.9874 72.7024 73.0865 72.8179 73.1572C72.9633 73.2316 73.1243 73.2704 73.2876 73.2704C73.4509 73.2704 73.6119 73.2316 73.7572 73.1572C73.8726 73.0862 73.9681 72.9872 74.0348 72.8694C74.0994 72.752 74.1432 72.6243 74.1644 72.4919C74.1857 72.3656 74.1969 72.2379 74.1977 72.1098V70.1288H74.5095L74.5003 72.1894Z" fill="white"></path><path d="M76.8581 72.85C76.9322 72.9838 77.0429 73.0936 77.1774 73.1664C77.315 73.2371 77.4678 73.2727 77.6225 73.27C77.7219 73.2707 77.8207 73.2548 77.9149 73.2229C78.0019 73.1937 78.0828 73.1489 78.1537 73.0905C78.2212 73.0344 78.2758 72.9643 78.3137 72.8851C78.3543 72.8006 78.3746 72.7078 78.373 72.614C78.377 72.5131 78.3516 72.4131 78.2999 72.3263C78.2499 72.2501 78.1827 72.1867 78.1037 72.1412C78.0158 72.0899 77.9228 72.048 77.8261 72.0163C77.7237 71.9818 77.6182 71.9473 77.5096 71.9127C77.4022 71.8789 77.2966 71.8396 77.1931 71.7952C77.0921 71.7527 76.9985 71.6947 76.9155 71.6231C76.8312 71.5499 76.7642 71.4589 76.7193 71.3566C76.6668 71.2314 76.6419 71.0964 76.6462 70.9606C76.6436 70.8246 76.673 70.6899 76.7323 70.5674C76.7887 70.4552 76.8693 70.3569 76.9682 70.2797C77.0704 70.2012 77.1862 70.1422 77.3097 70.1057C77.4411 70.0658 77.5777 70.0458 77.715 70.0465C77.8885 70.0435 78.0609 70.0749 78.2221 70.139C78.3837 70.208 78.5233 70.32 78.6256 70.4629L78.3563 70.6562C78.2848 70.5527 78.1896 70.4677 78.0787 70.4083C77.9623 70.3509 77.8337 70.3227 77.7039 70.3259C77.6065 70.3255 77.5096 70.3392 77.4161 70.3666C77.3299 70.3906 77.249 70.4305 77.1774 70.4841C77.1092 70.5367 77.0536 70.6037 77.0145 70.6803C76.9721 70.7665 76.9512 70.8618 76.9534 70.9579C76.9439 71.0979 76.9898 71.2362 77.0812 71.3428C77.1708 71.4355 77.2793 71.5078 77.3995 71.5546C77.535 71.6089 77.6738 71.6546 77.815 71.6916C77.9589 71.7283 78.0983 71.7811 78.2305 71.8489C78.357 71.9149 78.4661 72.01 78.5488 72.1264C78.6414 72.2719 78.686 72.4428 78.6765 72.615C78.6791 72.7533 78.65 72.8903 78.5913 73.0156C78.5371 73.1291 78.4591 73.2298 78.3628 73.3107C78.2648 73.3935 78.1517 73.4563 78.0297 73.4958C77.9035 73.5367 77.7717 73.5573 77.6391 73.5569C77.4302 73.5592 77.2229 73.5199 77.0293 73.4412C76.8369 73.3589 76.6717 73.2238 76.5527 73.0517L76.8581 72.85Z" fill="white"></path><path d="M80.8076 70.1288H82.8508V70.412H81.1195V71.6009H82.7426V71.884H81.1195V73.1821H82.9267V73.4653H80.8085L80.8076 70.1288Z" fill="white"></path><path d="M11.8534 24.1008C11.6609 23.9772 11.488 23.8253 11.3408 23.6502C11.1582 23.4466 11.0201 23.2071 10.9355 22.947C10.9179 22.8989 10.9031 22.8498 10.8911 22.7999C10.8544 22.6484 10.8358 22.4932 10.8355 22.3373C10.8282 21.8208 11.0263 21.3224 11.3864 20.952C11.7465 20.5815 12.2391 20.3693 12.7557 20.3619C13.2723 20.3546 13.7707 20.5527 14.1412 20.9127C14.5117 21.2728 14.724 21.7652 14.7314 22.2818C14.7314 22.3003 14.7314 22.3188 14.7314 22.3373C14.732 22.6247 14.6697 22.9087 14.5489 23.1694C14.428 23.4301 14.2515 23.6612 14.0318 23.8464C14.5274 23.943 15.0407 23.8872 15.504 23.6863C16.0983 23.4035 16.663 23.0626 17.1901 22.6685V23.2579C16.3474 24.0402 15.2782 24.5349 14.1363 24.6708C14.0623 24.6708 13.9679 24.6763 13.8587 24.6763C13.1456 24.7076 12.4415 24.5073 11.8516 24.1054" fill="#FE4F02"></path></svg>